<?xml version="1.0" standalone="no"?>
<!DOCTYPE svg PUBLIC "-//W3C//DTD SVG 20010904//EN"
 "http://www.w3.org/TR/2001/REC-SVG-20010904/DTD/svg10.dtd">
<svg version="1.0" xmlns="http://www.w3.org/2000/svg"
 width="539.000000pt" height="539.000000pt" viewBox="0 0 539.000000 539.000000"
 preserveAspectRatio="xMidYMid meet">
<metadata>
Created by potrace 1.14, written by Peter Selinger 2001-2017
</metadata>
<g transform="translate(0.000000,539.000000) scale(0.100000,-0.100000)"
fill="#000000" stroke="none">
<path d="M2498 5385 c-1 -1 -34 -6 -73 -10 -72 -6 -121 -13 -165 -21 -14 -2
-41 -7 -60 -10 -211 -32 -535 -147 -770 -271 -141 -74 -356 -217 -436 -288 -6
-5 -33 -28 -59 -50 -108 -89 -292 -285 -389 -413 -131 -172 -266 -412 -351
-622 -43 -106 -100 -281 -111 -340 -3 -14 -11 -50 -19 -80 -17 -67 -43 -222
-53 -321 -14 -147 -7 -513 12 -629 3 -14 7 -42 11 -64 44 -301 192 -707 342
-944 18 -29 33 -56 33 -61 0 -5 3 -11 8 -13 4 -1 23 -28 42 -58 19 -30 40 -62
47 -70 6 -8 48 -60 91 -115 72 -91 237 -264 324 -341 195 -171 469 -341 748
-462 100 -44 387 -131 483 -147 12 -2 51 -9 87 -16 72 -13 80 -14 183 -25 91
-10 454 -11 527 -2 30 4 80 10 110 13 251 29 571 128 829 256 651 323 1137
883 1366 1574 29 88 72 249 79 295 3 19 10 58 15 85 52 255 49 709 -6 960 -2
11 -6 31 -9 45 -2 14 -9 45 -15 70 -84 339 -213 631 -397 901 -127 187 -311
392 -472 528 -41 35 -86 73 -100 84 -67 57 -309 209 -425 268 -166 85 -275
129 -485 193 -86 27 -294 71 -385 82 -27 3 -61 8 -75 10 -29 6 -477 14 -482 9z"/>
</g>
</svg>
