<?xml version="1.0" standalone="no"?>
<!DOCTYPE svg PUBLIC "-//W3C//DTD SVG 20010904//EN"
 "http://www.w3.org/TR/2001/REC-SVG-20010904/DTD/svg10.dtd">
<svg version="1.0" xmlns="http://www.w3.org/2000/svg"
 width="541.000000pt" height="541.000000pt" viewBox="0 0 541.000000 541.000000"
 preserveAspectRatio="xMidYMid meet">
<metadata>
Created by potrace 1.14, written by Peter Selinger 2001-2017
</metadata>
<g transform="translate(0.000000,541.000000) scale(0.100000,-0.100000)"
fill="#000000" stroke="none">
<path d="M2587 5264 c-1 -1 -45 -4 -97 -8 -52 -3 -111 -8 -130 -11 -404 -56
-771 -191 -1085 -400 -141 -94 -199 -149 -232 -221 -65 -143 2 -311 152 -381
58 -26 65 -27 255 -28 122 -1 201 2 212 9 10 6 20 23 23 38 9 39 76 110 130
137 183 91 401 -38 394 -232 -2 -74 -32 -139 -84 -188 -41 -39 -130 -88 -161
-89 -51 0 -53 -8 -57 -255 -2 -126 -6 -239 -10 -250 -31 -109 -77 -187 -158
-270 l-58 -59 -22 24 c-11 14 -33 41 -48 60 -14 19 -28 37 -31 40 -31 30 -78
173 -86 258 -6 61 -4 71 12 83 29 21 80 90 91 125 15 42 10 142 -9 184 -24 56
-65 97 -123 124 -119 57 -268 8 -326 -107 -30 -57 -35 -133 -15 -195 21 -62
87 -134 139 -153 26 -9 37 -19 38 -34 5 -189 41 -297 145 -434 l54 -70 -33 -9
c-75 -20 -267 7 -296 42 -7 8 -6 31 3 67 15 68 3 141 -37 214 -74 135 -186
197 -341 190 -36 -2 -73 -8 -83 -13 -10 -6 -20 -10 -23 -9 -15 2 -82 -39 -121
-73 -36 -32 -51 -39 -81 -37 -21 1 -38 7 -38 12 1 79 220 554 287 623 7 7 13
17 13 21 0 4 19 27 43 52 53 56 71 98 63 141 -7 40 -47 85 -82 94 -32 8 -98
-2 -102 -16 -2 -5 -9 -10 -15 -10 -7 -1 -25 -19 -40 -41 -102 -148 -151 -225
-192 -303 -26 -49 -51 -96 -55 -105 -12 -21 -60 -130 -60 -136 0 -2 -5 -16
-12 -32 -6 -15 -13 -36 -15 -46 -1 -10 -10 -31 -18 -47 -9 -17 -15 -31 -14
-32 1 -2 -3 -19 -8 -38 -46 -154 -45 -149 -69 -275 -16 -86 -20 -109 -31 -195
-12 -89 -6 -595 7 -595 1 0 3 -13 5 -30 5 -50 16 -111 50 -276 2 -9 13 -49 25
-90 12 -41 23 -78 25 -84 1 -5 7 -23 13 -38 7 -16 12 -33 12 -38 0 -5 4 -17 9
-27 5 -9 19 -42 31 -72 29 -72 141 -300 183 -370 17 -31 53 -86 79 -123 27
-38 48 -72 48 -77 0 -4 4 -10 8 -12 4 -1 23 -23 42 -48 80 -103 265 -294 349
-360 24 -19 49 -39 55 -45 141 -126 515 -336 741 -416 33 -11 67 -23 75 -26 8
-3 24 -8 35 -10 11 -2 31 -7 45 -13 21 -8 107 -29 230 -56 14 -4 45 -8 70 -10
25 -3 55 -7 68 -10 79 -17 429 -24 552 -10 107 11 108 12 255 37 226 39 493
131 715 246 116 60 192 103 200 112 3 4 30 22 60 41 30 19 62 40 70 47 169
131 374 323 452 423 79 101 109 141 151 202 26 38 47 70 47 73 0 2 17 33 38
67 60 99 188 370 198 418 0 3 5 16 11 30 14 33 44 121 48 140 2 8 10 42 19 75
16 58 20 72 31 125 10 47 15 75 21 120 3 25 8 54 10 65 25 125 24 664 -1 705
-2 3 -6 26 -9 50 -3 25 -8 54 -10 65 -56 264 -143 493 -275 730 -66 118 -178
277 -221 313 -43 36 -119 44 -181 18 -78 -32 -178 2 -219 76 -42 76 -21 156
57 212 60 43 78 73 70 121 -19 115 -181 105 -280 -18 -98 -120 -115 -266 -48
-402 40 -81 102 -141 189 -185 62 -32 74 -34 174 -36 116 -2 111 0 164 -69 30
-38 144 -230 144 -241 0 -3 19 -45 41 -93 23 -47 42 -90 44 -96 1 -5 8 -23 14
-40 39 -94 58 -155 47 -156 -6 0 -26 -2 -43 -4 -27 -3 -41 4 -75 37 -63 61
-137 90 -228 91 -41 1 -90 -2 -108 -6 -88 -20 -192 -99 -232 -177 -35 -68 -54
-184 -40 -245 7 -30 -3 -46 -36 -60 -56 -23 -81 -27 -180 -28 -134 -1 -135 0
-70 79 89 108 144 246 151 379 1 33 3 63 4 67 0 3 21 18 46 32 97 58 137 122
138 225 0 77 -23 132 -79 185 -97 91 -255 87 -348 -8 -36 -38 -69 -117 -71
-176 -3 -74 59 -195 109 -213 14 -5 8 -113 -10 -180 -21 -81 -77 -175 -157
-261 l-23 -25 -50 56 c-27 31 -54 61 -59 67 -23 25 -109 176 -101 176 3 0 1
11 -4 25 -19 50 -22 82 -24 234 -1 128 2 155 14 161 8 5 37 19 65 32 27 12 75
48 105 78 145 146 176 354 78 530 -114 205 -355 282 -564 179 -82 -41 -125
-78 -173 -150 -90 -135 -100 -303 -27 -447 47 -93 144 -180 239 -213 42 -15
39 -1 38 -172 0 -54 -2 -101 -5 -105 -3 -5 -144 -8 -178 -3 -4 1 -17 22 -30
49 -48 99 -128 171 -227 202 -86 27 -247 2 -295 -46 -8 -8 -18 -14 -22 -14
-17 0 -67 -67 -97 -130 -28 -58 -31 -75 -31 -152 0 -79 3 -93 34 -154 78 -152
245 -226 407 -179 94 27 162 77 226 167 17 24 20 24 144 23 l128 -1 40 -71
c47 -83 73 -118 149 -198 30 -33 56 -62 56 -65 0 -3 -22 -19 -49 -37 l-49 -32
-39 19 c-78 38 -190 8 -253 -67 -84 -101 -79 -226 14 -318 78 -78 167 -95 261
-51 52 24 109 80 127 125 6 14 11 53 12 86 l2 59 53 32 c29 17 63 41 76 52 12
11 27 17 31 12 17 -14 139 -58 184 -65 129 -21 276 0 381 53 l55 29 52 -30
c70 -39 136 -55 210 -50 175 10 300 126 328 304 7 40 7 40 47 37 39 -3 41 -4
45 -43 6 -54 7 -492 0 -530 l-5 -30 -329 0 c-181 1 -347 4 -369 7 -297 47
-440 40 -584 -30 -32 -16 -86 -58 -131 -103 -102 -101 -151 -124 -255 -123
-106 0 -147 21 -255 124 -161 154 -298 192 -535 146 -77 -15 -146 -57 -231
-140 -112 -110 -155 -131 -259 -131 -103 0 -148 21 -240 108 -95 89 -115 104
-179 132 -117 52 -315 64 -486 30 -14 -3 -41 -8 -60 -11 -49 -8 -700 -13 -701
-5 0 3 -3 17 -6 31 -15 65 -4 534 12 561 4 5 21 9 40 9 32 0 35 -3 40 -37 4
-21 11 -50 17 -65 5 -15 10 -31 10 -35 1 -18 61 -94 101 -127 116 -95 262
-106 409 -32 l53 27 51 -25 c162 -78 350 -79 525 -3 l36 16 54 -40 c30 -22 64
-42 76 -45 13 -4 23 -14 24 -23 3 -107 24 -164 76 -212 48 -45 77 -59 137 -65
76 -8 138 15 193 73 118 122 74 316 -87 385 -51 23 -128 20 -177 -6 -29 -14
-31 -14 -77 19 l-47 33 53 54 c99 98 160 193 196 303 29 85 34 124 37 265 2
69 4 130 4 136 1 7 25 30 55 52 127 97 214 228 234 353 21 135 -14 271 -96
372 -54 67 -183 154 -242 163 -103 15 -143 18 -185 13 -60 -8 -76 -12 -92 -22
-7 -5 -13 -6 -13 -2 0 8 -101 -45 -139 -74 -19 -14 -51 -43 -70 -64 l-36 -38
-127 -2 c-140 -2 -160 6 -173 63 -12 57 25 87 310 247 170 95 376 177 556 219
68 16 159 34 199 40 24 3 47 7 50 9 15 9 187 19 325 18 145 0 257 -7 320 -20
47 -10 48 -10 85 -17 232 -38 590 -174 757 -286 51 -35 98 -45 136 -31 51 19
77 59 77 115 0 61 -45 96 -277 217 -40 20 -73 34 -73 31 0 -4 -4 -2 -8 4 -14
21 -246 105 -387 140 -217 54 -369 74 -588 78 -75 2 -138 2 -140 0z m816 -862
c146 -65 187 -255 77 -362 -48 -47 -88 -64 -155 -63 -69 0 -117 19 -165 66
-81 79 -84 192 -8 300 47 66 170 95 251 59z m-2011 -561 c9 0 31 -15 48 -33
29 -29 32 -36 28 -79 -7 -71 -46 -101 -122 -95 -61 4 -96 42 -96 101 1 57 55
115 103 110 12 -1 30 -3 39 -4z m2584 -10 c-3 -5 1 -11 9 -14 9 -4 12 -1 8 9
-4 10 2 14 21 14 14 0 26 -4 26 -10 0 -5 6 -7 13 -4 22 8 61 -47 63 -91 2 -44
-17 -82 -37 -69 -8 4 -10 3 -5 -5 8 -12 -31 -31 -50 -24 -7 2 -15 0 -18 -6 -8
-13 -53 5 -83 35 -28 26 -35 80 -17 116 18 36 31 42 52 27 14 -11 15 -11 5 1
-17 19 -16 30 3 30 8 0 13 -4 10 -9z m-1234 -288 c40 -19 76 -72 81 -120 10
-87 -56 -157 -147 -156 -73 1 -126 39 -144 103 -17 65 8 127 68 168 39 26 96
28 142 5z m-611 -800 c41 -41 41 -120 -1 -158 -25 -22 -109 -31 -131 -13 -19
16 -46 68 -43 86 1 6 2 21 3 32 0 11 15 33 32 50 27 25 38 29 76 26 27 -2 52
-11 64 -23z m1228 5 c25 -14 51 -68 51 -103 0 -13 -14 -37 -31 -54 -25 -26
-38 -31 -78 -31 -39 0 -52 5 -73 28 -36 37 -43 73 -23 115 28 60 97 80 154 45z
m-1884 -472 c90 -23 116 -37 185 -102 150 -141 227 -177 385 -177 153 -1 244
41 381 177 65 64 70 68 124 90 60 25 179 29 239 8 78 -27 90 -35 241 -172 112
-101 315 -134 468 -76 79 30 100 45 187 127 82 79 102 93 160 115 71 27 238
24 319 -5 12 -4 65 -7 118 -7 54 1 98 -3 98 -7 0 -5 5 -5 11 -2 16 10 59 13
64 5 3 -5 17 -5 33 -1 15 4 44 4 64 1 21 -4 38 -5 38 -1 0 7 105 5 117 -2 4
-2 17 -1 28 3 11 4 29 4 40 1 11 -4 31 -6 45 -4 14 2 36 3 50 2 14 -1 38 -1
53 -1 26 0 27 -3 23 -32 -2 -17 -5 -32 -6 -33 -2 -2 -3 -9 -4 -15 -1 -7 -8
-12 -16 -10 -11 3 -11 0 -1 -12 7 -9 9 -21 5 -28 -5 -7 -9 -19 -11 -27 -2 -18
-23 -39 -23 -24 0 6 -12 10 -27 8 -16 -2 -35 1 -44 5 -8 5 -22 5 -29 0 -10 -6
-23 -4 -37 5 -16 11 -24 12 -29 3 -5 -7 -2 -8 7 -3 8 5 11 5 7 0 -10 -10 -99
-14 -92 -4 3 5 0 9 -5 9 -6 0 -11 -4 -11 -9 0 -14 -80 -7 -91 9 -9 12 -10 12
-5 -3 5 -15 1 -18 -23 -15 -22 2 -35 -5 -54 -28 -14 -17 -24 -39 -22 -50 2
-10 4 -22 4 -27 1 -4 15 -16 32 -26 30 -19 33 -19 302 -24 42 -1 78 -6 78 -10
1 -7 -9 -37 -35 -99 l-11 -28 -120 -1 c-66 -1 -133 0 -150 1 -51 3 -135 41
-217 96 -108 74 -144 91 -223 105 -167 29 -299 -18 -455 -160 -25 -23 -55 -44
-67 -47 -13 -3 -23 -9 -23 -13 0 -14 -117 -44 -185 -48 -141 -6 -218 23 -360
138 -90 72 -170 117 -226 126 -101 16 -215 2 -289 -35 -36 -18 -100 -63 -135
-96 -49 -46 -126 -95 -171 -111 -97 -34 -265 -28 -352 11 -32 15 -156 109
-202 153 -26 25 -137 72 -187 79 -84 10 -177 4 -235 -16 -30 -11 -99 -49 -152
-86 -56 -38 -120 -72 -151 -82 -62 -17 -319 -24 -334 -8 -13 13 -60 128 -55
133 2 3 77 4 167 4 176 -1 221 8 236 48 8 24 -7 81 -20 73 -4 -2 -9 2 -11 8
-4 10 -54 13 -209 13 -124 0 -207 4 -211 10 -9 12 -35 98 -43 143 -3 22 -1 32
7 33 54 5 588 3 588 -3 0 -4 13 -3 29 2 15 4 34 4 41 0 7 -5 23 -6 34 -4 12 3
33 7 49 9 15 2 31 6 35 9 5 3 31 8 58 12 27 3 50 7 51 8 5 4 137 -3 158 -8z
m-20 -591 c67 -12 155 -54 250 -119 129 -88 166 -103 280 -112 141 -10 239 24
395 136 46 33 111 71 130 75 3 1 12 4 20 8 37 14 120 25 172 22 101 -5 175
-35 313 -125 55 -36 111 -71 125 -78 92 -45 262 -51 365 -12 33 13 105 53 160
90 151 100 201 120 318 125 110 5 214 -27 349 -107 69 -40 150 -61 248 -63 94
-3 97 -6 54 -62 -14 -18 -22 -33 -19 -33 4 0 0 -7 -9 -15 -11 -11 -30 -14 -73
-11 -73 5 -133 26 -254 87 -123 63 -146 70 -253 75 -75 3 -101 -1 -158 -20
-55 -19 -177 -90 -198 -115 -3 -3 -16 -12 -29 -19 -13 -8 -39 -23 -58 -33
-117 -66 -351 -64 -478 3 -22 12 -50 26 -62 32 -13 6 -23 14 -23 18 0 14 -179
108 -231 122 -77 20 -204 14 -265 -13 -26 -12 -97 -54 -158 -94 -60 -40 -112
-72 -115 -72 -3 -1 -15 -6 -26 -12 -11 -6 -33 -13 -50 -17 -16 -3 -41 -9 -55
-12 -29 -6 -146 -5 -181 1 -71 14 -88 18 -126 33 -24 9 -43 20 -43 25 0 4 -4
7 -10 7 -9 0 -151 88 -177 110 -7 5 -18 10 -26 10 -7 0 -17 4 -22 9 -35 32
-198 52 -280 35 -42 -9 -140 -51 -184 -78 -41 -26 -169 -75 -198 -75 -36 -1
-72 -7 -79 -13 -8 -9 -45 36 -72 90 l-22 42 83 1 c93 1 126 5 165 21 15 6 32
12 38 13 6 2 28 14 50 27 100 63 155 86 239 101 30 5 135 1 180 -8z"/>
<path d="M4055 3810 c-3 -5 -1 -10 4 -10 6 0 11 5 11 10 0 6 -2 10 -4 10 -3 0
-8 -4 -11 -10z"/>
<path d="M1097 2228 c-9 -6 -9 -8 1 -8 17 0 15 -25 -5 -41 -15 -13 -15 -12 -4
11 11 24 11 24 -4 5 -8 -11 -13 -25 -11 -32 5 -12 -6 -18 -27 -14 -5 1 -5 -3
-2 -10 4 -6 -2 -17 -13 -25 -14 -9 -19 -21 -15 -31 4 -11 3 -14 -5 -9 -8 5
-10 2 -6 -8 3 -9 11 -13 18 -9 6 3 5 0 -2 -8 -11 -12 -14 -12 -23 1 -9 13 -10
13 -6 -1 3 -9 0 -22 -6 -28 -8 -8 -8 -14 2 -23 10 -11 11 -10 6 3 -4 10 -1 20
6 25 7 4 10 3 5 -4 -3 -6 -2 -13 4 -17 5 -3 10 1 10 10 0 9 4 14 9 10 5 -3 19
7 30 22 11 16 26 34 31 41 6 6 8 12 4 12 -3 0 1 11 10 25 9 14 13 25 9 25 -5
0 -2 4 6 9 8 5 16 15 17 23 2 7 6 22 9 33 5 16 2 21 -15 21 -11 0 -26 -4 -33
-8z m31 -23 c-3 -3 -9 2 -12 12 -6 14 -5 15 5 6 7 -7 10 -15 7 -18z m-79 -109
c11 -14 6 -15 -27 -7 -4 1 8 21 12 21 2 0 9 -6 15 -14z"/>
<path d="M4245 2187 c10 -8 15 -19 12 -24 -4 -6 0 -14 9 -17 8 -3 13 -10 9
-15 -3 -5 -1 -12 5 -16 6 -4 8 -11 5 -16 -4 -5 1 -12 9 -15 9 -3 13 -11 10
-16 -4 -6 4 -4 17 2 34 18 38 24 12 16 -14 -5 -23 -3 -23 3 0 6 8 11 18 12 14
0 14 2 -3 9 -11 5 -16 9 -11 9 5 1 3 8 -4 16 -7 8 -16 12 -21 9 -5 -3 -14 8
-20 25 -6 17 -18 31 -27 31 -13 0 -13 -2 3 -13z m61 -72 c1 -8 -3 -18 -8 -22
-6 -3 -8 -1 -4 5 3 6 2 13 -4 17 -6 4 -8 11 -4 16 7 12 17 4 20 -16z"/>
<path d="M4330 2130 c0 -5 5 -10 11 -10 5 0 7 5 4 10 -3 6 -8 10 -11 10 -2 0
-4 -4 -4 -10z"/>
<path d="M4330 2046 c0 -8 4 -17 8 -20 4 -2 8 4 8 15 0 10 -4 19 -8 19 -4 0
-8 -6 -8 -14z"/>
<path d="M2614 4218 c-32 -15 -48 -51 -40 -91 8 -43 33 -66 78 -74 30 -4 39
-1 62 23 69 75 -9 187 -100 142z"/>
<path d="M793 3807 c-51 -23 -28 -97 31 -97 25 0 35 6 44 25 16 35 15 49 -5
67 -20 17 -39 19 -70 5z"/>
<path d="M4511 3796 c-20 -21 -21 -27 -10 -48 16 -30 28 -38 61 -38 48 0 66
66 26 94 -31 22 -51 20 -77 -8z"/>
<path d="M2471 2940 c-68 -16 -80 -113 -18 -150 39 -24 75 -19 105 15 55 64
-3 155 -87 135z"/>
<path d="M2829 2936 c-75 -37 -52 -150 32 -161 46 -6 91 41 87 90 -4 60 -66
98 -119 71z"/>
</g>
</svg>
